<!-- Generator: Adobe Illustrator 24.0.0, SVG Export Plug-In  -->
<svg version="1.1" xmlns="http://www.w3.org/2000/svg" xmlns:xlink="http://www.w3.org/1999/xlink" x="0px" y="0px" width="95.17px"
	 height="262.11px" viewBox="0 0 95.17 262.11" style="enable-background:new 0 0 95.17 262.11;" xml:space="preserve">
<style type="text/css">
	.st0{fill:#5B320E;}
	.st1{fill:#BF9026;}
	.st2{fill:#87400F;}
	.st3{fill:#FF0000;}
	.st4{fill:#FFFFFF;}
	.st5{fill:none;stroke:#87400F;stroke-miterlimit:10;}
</style>
<defs>
</defs>
<g>
	<path class="st0" d="M78.17,136.13c0,0-16.74-8.94-23.46-35.12H54.6v0.09H40.65c-6.74,26.11-23.44,35.03-23.44,35.03L17,152.98
		h61.18V136.13z"/>
	<polygon class="st1" points="7.39,262.11 87.78,215.95 87.78,166.45 7.39,166.45 	"/>
	<polygon class="st2" points="78.17,152.98 78.17,153.31 16.99,153.31 17,152.98 0,152.98 0,166.45 7.39,166.45 87.78,166.45 
		95.17,166.45 95.17,152.98 	"/>
	<rect x="17" y="152.98" class="st2" width="61.18" height="0.34"/>
	<path class="st0" d="M54.6,101.01V7.47h-0.02V22.2H40.59V7.47h-0.03v93.64h0.09c0.01-0.03,0.02-0.06,0.02-0.09H54.6z"/>
	<path class="st0" d="M54.6,101.01H40.68c-0.01,0.03-0.02,0.06-0.02,0.09H54.6V101.01z"/>
	<path class="st3" d="M47.58,7.35c0.33,0,0.65,0.04,0.96,0.12h6.05V7c0-3.86-3.13-7-7-7l0,0c-3.86,0-7,3.13-7,7v0.47h6.04
		C46.93,7.39,47.25,7.35,47.58,7.35z"/>
	<path class="st3" d="M54.59,22.2V7.47h-6.05c1.61,0.42,2.8,1.89,2.8,3.63c0,2.07-1.68,3.75-3.75,3.75s-3.75-1.68-3.75-3.75
		c0-1.74,1.19-3.21,2.8-3.63h-6.04V22.2H54.59z"/>
	<path class="st4" d="M46.63,7.47h1.91c-0.31-0.08-0.63-0.12-0.96-0.12C47.25,7.35,46.93,7.39,46.63,7.47z"/>
	<path class="st4" d="M43.83,11.1c0,2.07,1.68,3.75,3.75,3.75s3.75-1.68,3.75-3.75c0-1.74-1.19-3.21-2.8-3.63h-1.91
		C45.02,7.89,43.83,9.36,43.83,11.1z"/>
</g>
<line class="st5" x1="21.94" y1="253.78" x2="21.94" y2="193.86"/>
<line class="st5" x1="29.61" y1="193.86" x2="29.61" y2="249.29"/>
<line class="st5" x1="68.28" y1="193.86" x2="68.28" y2="227.27"/>
<line class="st5" x1="47.56" y1="193.86" x2="47.56" y2="238.96"/>
</svg>
