<!-- Generator: Adobe Illustrator 24.0.0, SVG Export Plug-In  -->
<svg version="1.1" xmlns="http://www.w3.org/2000/svg" xmlns:xlink="http://www.w3.org/1999/xlink" x="0px" y="0px"
	 width="244.86px" height="145.57px" viewBox="0 0 244.86 145.57" style="enable-background:new 0 0 244.86 145.57;"
	 xml:space="preserve">
<style type="text/css">
	.st0{fill:#E227D5;}
	.st1{fill:#890386;}
	.st2{fill:#FFFFFF;}
	.st3{fill:none;stroke:#000000;stroke-width:7;stroke-miterlimit:10;}
	.st4{fill:none;stroke:#000000;stroke-width:6;stroke-miterlimit:10;}
</style>
<defs>
</defs>
<rect x="3.59" y="82.51" class="st0" width="132.75" height="59.49"/>
<polygon class="st1" points="239.58,64.75 181.58,105.75 181.58,50.75 239.58,11.02 "/>
<polygon class="st2" points="179.58,110.21 136.34,142 136.34,82.51 179.58,50.71 "/>
<polygon class="st1" points="176.73,50.58 52.92,48.82 111.81,3.02 244.56,3.02 "/>
<polygon class="st2" points="137.95,78.78 14.59,78.34 48.96,52.79 173.2,52.79 "/>
<polygon class="st3" points="139.55,79.35 139.55,138.8 241.36,66.72 241.36,7.22 "/>
<polyline class="st4" points="139.9,79.33 136.34,80.33 8.98,79.54 111.83,3 244.58,3 "/>
<polyline class="st3" points="47.76,50.71 179.59,50.71 179.58,110.21 "/>
<polyline class="st3" points="3.58,82.53 3.58,141.99 136.36,141.99 "/>
</svg>
