<!-- Generator: Adobe Illustrator 24.0.0, SVG Export Plug-In  -->
<svg version="1.1" xmlns="http://www.w3.org/2000/svg" xmlns:xlink="http://www.w3.org/1999/xlink" x="0px" y="0px" width="274.4px"
	 height="278.61px" viewBox="0 0 274.4 278.61" style="enable-background:new 0 0 274.4 278.61;" xml:space="preserve">
<style type="text/css">
	.st0{fill:#A58426;}
	.st1{fill:#E227D5;}
	.st2{fill:#BFBFBF;}
	.st3{fill:#C9A34F;}
</style>
<defs>
</defs>
<g>
	<g>
		<polygon class="st0" points="33.5,262.33 34.99,261.61 33.5,262.33 		"/>
	</g>
	<g>
		<polygon class="st0" points="61.89,248.51 29.04,216.23 29.04,216.23 16.42,243.35 34.99,261.61 61.89,248.52 249.55,57.57 
			216.69,25.28 216.68,25.29 249.53,57.58 		"/>
	</g>
	<g>
		<polygon class="st0" points="0.02,278.61 30.96,263.57 33.46,262.35 0.05,278.57 		"/>
	</g>
	
		<rect x="232.68" y="3.71" transform="matrix(0.7009 -0.7132 0.7132 0.7009 54.9554 184.5573)" class="st1" width="29.73" height="46.07"/>
	
		<rect x="232.77" y="17.55" transform="matrix(0.7009 -0.7132 0.7132 0.7009 41.0155 178.995)" class="st2" width="2.34" height="46.07"/>
	
		<rect x="234.26" y="15.52" transform="matrix(0.7009 -0.7132 0.7132 0.7009 43.0671 179.8136)" class="st2" width="3.37" height="46.07"/>
	<polygon points="13.43,249.77 0,278.59 0.05,278.57 13.44,249.77 	"/>
	<polygon points="28.63,264.7 13.44,249.77 0.05,278.57 33.46,262.35 33.5,262.33 33.5,262.33 	"/>
	<g>
		
			<rect x="-11" y="120.74" transform="matrix(0.7009 -0.7132 0.7132 0.7009 -49.3828 123.7354)" class="st3" width="267.71" height="0.02"/>
	</g>
	<g>
		
			<rect x="5.43" y="113.87" transform="matrix(0.7009 -0.7132 0.7132 0.7009 -55.9866 140.2855)" class="st3" width="267.71" height="46.06"/>
	</g>
	<polygon class="st0" points="34.99,261.61 34.99,261.61 34.99,261.61 	"/>
	<polygon class="st0" points="16.42,243.35 16.42,243.35 13.42,249.76 13.43,249.77 15.72,244.86 	"/>
	<polygon class="st0" points="15.72,244.86 33.5,262.33 34.99,261.61 34.99,261.61 16.42,243.35 	"/>
	<polygon class="st0" points="14.53,247.42 15.72,244.86 13.43,249.77 13.44,249.77 	"/>
	<polygon class="st0" points="13.44,249.77 28.63,264.7 33.5,262.33 15.72,244.86 14.53,247.42 	"/>
</g>
</svg>

