<!-- Generator: Adobe Illustrator 24.0.0, SVG Export Plug-In  -->
<svg version="1.1" xmlns="http://www.w3.org/2000/svg" xmlns:xlink="http://www.w3.org/1999/xlink" x="0px" y="0px" width="247.5px"
	 height="225.36px" viewBox="0 0 247.5 225.36" style="enable-background:new 0 0 247.5 225.36;" xml:space="preserve">
<style type="text/css">
	.st0{fill:#FFFFFF;stroke:#000000;stroke-width:11;stroke-miterlimit:10;}
</style>
<defs>
</defs>
<g>
	<path class="st0" d="M105.74,20.26C80.42-1.63,42.15,1.15,20.26,26.47s-19.11,63.59,6.21,85.48c23.73,20.51,58.83,19.36,81.16-1.7
		l8.15-9.43C133.39,75.67,129.46,40.77,105.74,20.26z M80.73,82.18L66.18,69.6L54.19,83.47l-3.68-3.18L62.5,66.42L48.08,53.95
		l3.4-3.93L65.9,62.49l11.99-13.87l3.68,3.18L69.58,65.68l14.55,12.58L80.73,82.18z"/>
	<path d="M116.23,100.29l-0.45,0.52c-1.18,1.69-2.46,3.33-3.84,4.92c-1.38,1.59-2.82,3.09-4.32,4.51l-0.45,0.52l123.71,114.59
		l16.61-19.21L116.23,100.29z"/>
	<path d="M111.94,105.74c1.38-1.59,2.65-3.24,3.84-4.92l-8.15,9.43C109.13,108.83,110.57,107.33,111.94,105.74z"/>
	<polygon points="81.57,51.81 77.89,48.62 65.9,62.49 51.47,50.02 48.08,53.95 62.5,66.42 50.51,80.29 54.19,83.47 66.18,69.6 
		80.73,82.18 84.13,78.25 69.58,65.68 	"/>
</g>
</svg>

